<mxfile host="app.diagrams.net" modified="2023-04-19T07:26:31.035Z" agent="Mozilla/5.0 (Windows NT 10.0; Win64; x64) AppleWebKit/537.36 (KHTML, like Gecko) Chrome/112.0.0.0 Safari/537.36" etag="K2rz4v8auQWHIBY4iCq8" version="21.1.9" type="device">
  <diagram name="Page-1" id="ERJwXKE4ufuHKa2keeCB">
    <mxGraphModel dx="4302" dy="2491" grid="1" gridSize="10" guides="1" tooltips="1" connect="1" arrows="1" fold="1" page="1" pageScale="1" pageWidth="827" pageHeight="1169" math="0" shadow="0">
      <root>
        <mxCell id="0" />
        <mxCell id="1" parent="0" />
        <mxCell id="Qh_PVh86qx_EkCNPLDLQ-9" value="&lt;h1 style=&quot;font-size: 300px;&quot;&gt;&lt;font data-font-src=&quot;https://fonts.googleapis.com/css?family=Pacifico&quot; face=&quot;Pacifico&quot; style=&quot;font-size: 300px; font-weight: normal;&quot;&gt;&lt;font style=&quot;font-size: 300px;&quot; color=&quot;#ff8000&quot;&gt;F&lt;/font&gt;&lt;font style=&quot;font-size: 300px;&quot; color=&quot;#d4d4d4&quot;&gt;rank&lt;/font&gt;&lt;font style=&quot;font-size: 300px;&quot;&gt;&amp;nbsp;&amp;nbsp;&lt;/font&gt;&lt;font style=&quot;font-size: 300px;&quot; color=&quot;#ff8000&quot;&gt;L&lt;/font&gt;&lt;font style=&quot;font-size: 300px;&quot; color=&quot;#d4d4d4&quot;&gt;eo&lt;/font&gt;&lt;/font&gt;&lt;/h1&gt;" style="text;strokeColor=none;align=center;fillColor=none;html=1;verticalAlign=middle;whiteSpace=wrap;rounded=0;" vertex="1" parent="1">
          <mxGeometry x="-800" y="-560" width="1570" height="30" as="geometry" />
        </mxCell>
      </root>
    </mxGraphModel>
  </diagram>
</mxfile>
